<?xml version="1.0" encoding="utf-8"?>
<!-- Generator: Adobe Illustrator 18.1.0, SVG Export Plug-In . SVG Version: 6.00 Build 0)  -->
<svg version="1.1" id="Layer_1" xmlns="http://www.w3.org/2000/svg" xmlns:xlink="http://www.w3.org/1999/xlink" x="0px" y="0px"
	 viewBox="0 0 82.3 113.5" enable-background="new 0 0 82.3 113.5" xml:space="preserve">
<g>
	<path fill="#FFFFFF" d="M0,53.1c0,2.1,0.1,4.2,0.5,6.3C1.6,66,4.4,71.7,9.3,76.3c5.3,5,11.7,7.5,18.9,8c0.4,0,0.6,0.1,0.8,0.4
		c1.7,2.2,4,3,6.7,2.6c4-0.6,6.6-4.7,5.6-8.6c-0.8-2.9-3-4.9-6.1-5.3c-2.5-0.3-5.3,1-6.7,3.5c-0.2,0.3-0.4,0.4-0.7,0.4
		c-0.8-0.1-1.6-0.2-2.4-0.4c-6.1-1.2-11-4.3-14.5-9.5c-3-4.6-4-9.7-3.9-15.1c0.1-5.6,1.4-11,3.4-16.2c2.6-6.8,6.2-13.1,10.2-19.2
		c2.6-3.9,5.4-7.7,8.3-11.4c0.9-1.1,1-2.3,0.5-3.6c-1-2.4-4.3-2.8-6.1-0.5c-3.5,4.5-6.9,9.2-10,14c-3.5,5.5-6.7,11.2-9.1,17.3
		C1.7,39.3,0,46.1,0,53.1z M79.7,60.1c0.1-2.4-0.2-5.1-0.8-7.8c-1.9-7.9-6-14.3-12.9-18.6c-5.1-3.3-10.8-4.6-16.9-4.6
		c-1.6,0-3.3,0.1-4.9,0.3c-1.2,0.2-2.3,0.3-3.5,0.6c-1.7,0.5-2.8,2.3-2.4,4c0.4,1.6,1.9,3,3.9,2.7c1.6-0.3,3.3-0.6,4.9-0.7
		c2.7-0.1,5.3,0,7.9,0.5c6.6,1.5,11.6,5.1,14.8,11c2.9,5.2,3.3,10.9,2.7,16.8c0,0.3-0.2,0.4-0.4,0.6c-4,2.2-5.1,6.8-2.4,10.5
		c0.2,0.2,0.2,0.4,0.1,0.7c-0.8,2.2-1.7,4.4-2.8,6.5C63.4,90.2,59,97.2,54,103.9c-1.1,1.4-2.2,2.8-3.3,4.3c-1.1,1.5-0.7,3.6,0.8,4.7
		c1.4,1.1,3.6,0.8,4.7-0.6c0.8-1.1,1.7-2.1,2.5-3.2c4-5.2,7.6-10.7,10.9-16.4c2.5-4.5,4.9-9,6.6-13.9c0.2-0.4,0.4-0.7,0.8-0.8
		c1.4-0.3,2.6-1,3.5-2.1c2.6-3,2.3-7.3-0.7-9.9c-0.3-0.3-0.4-0.5-0.3-0.9C79.7,63.6,79.7,62,79.7,60.1z M64.6,60
		c0-1.2-0.2-3-0.6-4.8c-0.8-2.9-2.2-5.5-4.5-7.5c-2.2-1.9-4.8-2.8-7.7-3.2c-0.5-0.1-1,0-1.5-0.5c-2.7-2.9-6.9-3.1-9.8-0.4
		c-3,2.7-3,7.6,0.1,10.4c3.5,3.1,8.6,2.1,10.9-2.1c0.1-0.3,0.3-0.4,0.6-0.3c2.4,0.6,4.1,2,4.9,4.4c1,2.9,0.8,5.9,0.3,8.9
		c-0.8,4.3-2.3,8.3-4.1,12.2c-4.1,8.5-9.5,16.1-15.8,23.1c-2.2,2.5-4.4,5-6.6,7.5c-1.3,1.5-1.2,3.8,0.3,5c1.6,1.3,3.8,1.1,5.1-0.5
		c2.2-2.6,4.5-5.3,6.8-7.8c4.2-4.7,8.1-9.7,11.4-15.1c3.1-5,5.8-10.2,7.8-15.7C63.5,69.3,64.6,65,64.6,60z M15.2,52.9
		c0,1.6,0.1,3.3,0.5,4.9c1.2,5.3,4.3,9,9.6,10.7c2.6,0.8,5.3,0.9,8,0.6c2-0.2,3.9-0.6,5.8-1.3c1.3-0.4,2.2-1.4,2.4-2.8
		c0.2-1.5-0.3-2.7-1.6-3.5c-1-0.6-2-0.6-3.1-0.3c-2.7,0.8-5.4,1.3-8.2,0.9c-2.6-0.4-4.6-1.6-5.6-4.1c-0.6-1.4-0.9-2.9-0.9-4.4
		c-0.1-4.1,0.9-7.9,2.3-11.7c0.1-0.3,0.3-0.3,0.6-0.4c2.7-0.2,4.8-1.5,6-3.9c1.2-2.5,1-4.9-0.6-7.2c-0.2-0.3-0.2-0.5-0.1-0.8
		c3.4-5.6,7.3-10.9,11.7-15.8c2.4-2.7,4.8-5.4,7.2-8.1c1.3-1.5,1.1-3.7-0.3-4.9c-1.5-1.3-3.7-1.2-5,0.3c-2.2,2.6-4.4,5.2-6.7,7.7
		c-5.1,5.7-9.6,11.7-13.4,18.3c-0.1,0.3-0.3,0.4-0.6,0.4c-4.3,1-6.6,5.6-4.7,9.7c0.2,0.4,0.1,0.7,0,1C16.5,43.1,15.2,47.9,15.2,52.9
		z"/>
	<path fill="#FFFFFF" d="M0,53.1c0-7.1,1.7-13.8,4.2-20.3c2.4-6.1,5.6-11.8,9.1-17.3c3.1-4.9,6.4-9.5,10-14c1.8-2.3,5-1.9,6.1,0.5
		c0.5,1.3,0.4,2.5-0.5,3.6c-2.9,3.7-5.7,7.5-8.3,11.4c-4,6.1-7.6,12.4-10.2,19.2c-2,5.2-3.2,10.6-3.4,16.2
		c-0.1,5.4,0.9,10.5,3.9,15.1c3.5,5.2,8.4,8.3,14.5,9.5c0.8,0.2,1.6,0.2,2.4,0.4c0.3,0,0.5-0.1,0.7-0.4c1.4-2.6,4.2-3.8,6.7-3.5
		c3.1,0.3,5.3,2.3,6.1,5.3c1.1,3.9-1.6,8-5.6,8.6c-2.7,0.4-4.9-0.4-6.7-2.6c-0.2-0.3-0.5-0.4-0.8-0.4c-7.2-0.5-13.6-3-18.9-8
		C4.4,71.7,1.6,66,0.5,59.4C0.1,57.4,0,55.3,0,53.1z"/>
	<path fill="#FFFFFF" d="M79.7,60.1c0,1.9,0,3.5-0.2,5c-0.1,0.3,0,0.6,0.3,0.9c3,2.7,3.3,6.9,0.7,9.9C79.6,77,78.4,77.7,77,78
		c-0.5,0.1-0.7,0.3-0.8,0.8c-1.7,4.8-4.1,9.4-6.6,13.9c-3.3,5.7-6.9,11.2-10.9,16.4c-0.8,1.1-1.7,2.1-2.5,3.2
		c-1.1,1.4-3.3,1.7-4.7,0.6c-1.5-1.1-1.9-3.2-0.8-4.7c1.1-1.5,2.2-2.8,3.3-4.3c5-6.7,9.4-13.6,13.1-21.1c1-2.1,2-4.3,2.8-6.5
		c0.1-0.3,0.1-0.5-0.1-0.7c-2.7-3.7-1.6-8.3,2.4-10.5c0.2-0.1,0.4-0.3,0.4-0.6c0.6-5.8,0.2-11.5-2.7-16.8c-3.2-5.9-8.3-9.5-14.8-11
		c-2.6-0.6-5.3-0.7-7.9-0.5c-1.7,0.1-3.3,0.4-4.9,0.7c-2,0.3-3.5-1-3.9-2.7c-0.4-1.7,0.6-3.5,2.4-4c1.1-0.3,2.3-0.5,3.5-0.6
		c1.6-0.3,3.3-0.3,4.9-0.3c6,0,11.7,1.3,16.9,4.6c6.9,4.4,11.1,10.7,12.9,18.6C79.5,55,79.8,57.8,79.7,60.1z"/>
	<path fill="#FFFFFF" d="M64.6,60c0,5.1-1,9.4-2.5,13.6c-1.9,5.6-4.6,10.7-7.8,15.7c-3.4,5.4-7.2,10.4-11.4,15.1
		c-2.3,2.6-4.5,5.2-6.8,7.8c-1.4,1.6-3.5,1.8-5.1,0.5c-1.4-1.2-1.6-3.5-0.3-5c2.2-2.5,4.4-5,6.6-7.5c6.3-7,11.8-14.6,15.8-23.1
		c1.9-3.9,3.4-8,4.1-12.2c0.5-3,0.7-6-0.3-8.9c-0.8-2.4-2.5-3.8-4.9-4.4c-0.4-0.1-0.5,0-0.6,0.3c-2.2,4.1-7.3,5.2-10.9,2.1
		c-3.1-2.7-3.2-7.6-0.1-10.4c3-2.7,7.1-2.5,9.8,0.4c0.4,0.5,1,0.5,1.5,0.5c2.9,0.4,5.4,1.3,7.7,3.2c2.4,2,3.8,4.5,4.5,7.5
		C64.4,56.9,64.6,58.7,64.6,60z"/>
	<path fill="#FFFFFF" d="M15.2,52.9c0.1-5,1.3-9.8,3.1-14.5c0.1-0.3,0.2-0.6,0-1c-1.9-4.1,0.4-8.7,4.7-9.7c0.3-0.1,0.5-0.2,0.6-0.4
		C27.5,20.7,32,14.7,37.1,9c2.3-2.5,4.5-5.2,6.7-7.7c1.3-1.5,3.5-1.7,5-0.3c1.4,1.2,1.6,3.5,0.3,4.9c-2.4,2.7-4.8,5.4-7.2,8.1
		c-4.4,4.9-8.3,10.1-11.7,15.8c-0.2,0.3-0.1,0.5,0.1,0.8c1.6,2.3,1.8,4.7,0.6,7.2c-1.2,2.4-3.3,3.7-6,3.9c-0.3,0-0.5,0-0.6,0.4
		c-1.4,3.8-2.4,7.7-2.3,11.7c0,1.5,0.3,3,0.9,4.4c1.1,2.5,3,3.8,5.6,4.1c2.8,0.4,5.5-0.1,8.2-0.9c1.1-0.3,2.1-0.3,3.1,0.3
		c1.3,0.8,1.9,2,1.6,3.5c-0.2,1.4-1.1,2.3-2.4,2.8c-1.9,0.6-3.9,1-5.8,1.3c-2.7,0.3-5.4,0.2-8-0.6c-5.3-1.7-8.3-5.4-9.6-10.7
		C15.3,56.2,15.1,54.6,15.2,52.9z"/>
</g>
</svg>
