<?xml version="1.0" encoding="utf-8"?>
<svg width="134px" height="37px" viewBox="0 0 134 37" version="1.1" xmlns="http://www.w3.org/2000/svg" xmlns:xlink="http://www.w3.org/1999/xlink">
    <defs>
        <linearGradient x1="50.0040218%" y1="99.9994098%" x2="50.0040218%" y2="0.00383639261%" id="linearGradient-1">
            <stop stop-color="#2C95CE" offset="0%"></stop>
            <stop stop-color="#2C95CE" offset="3.02%"></stop>
            <stop stop-color="#339AD8" offset="68.78%"></stop>
            <stop stop-color="#379DDF" offset="99.44%"></stop>
        </linearGradient>
        <linearGradient x1="49.9972921%" y1="99.9977659%" x2="49.9972921%" y2="0.00484045128%" id="linearGradient-2">
            <stop stop-color="#2C95CE" offset="0%"></stop>
            <stop stop-color="#2C95CE" offset="3.02%"></stop>
            <stop stop-color="#339AD8" offset="68.78%"></stop>
            <stop stop-color="#379DDF" offset="99.44%"></stop>
        </linearGradient>
        <linearGradient x1="0.00251275589%" y1="49.9990468%" x2="100.00818%" y2="49.9990468%" id="linearGradient-3">
            <stop stop-color="#37C8ED" offset="0%"></stop>
            <stop stop-color="#40C4EA" offset="94.81%"></stop>
            <stop stop-color="#41C4EA" offset="99.44%"></stop>
        </linearGradient>
        <linearGradient x1="49.9982406%" y1="99.9985643%" x2="49.9982406%" y2="0%" id="linearGradient-4">
            <stop stop-color="#37C8ED" offset="0%"></stop>
            <stop stop-color="#40C4EA" offset="94.81%"></stop>
            <stop stop-color="#41C4EA" offset="99.44%"></stop>
        </linearGradient>
    </defs>
    <g id="Page-1" stroke="none" stroke-width="1" fill="none" fill-rule="evenodd">
        <g id="HOME" transform="translate(-616.000000, -14.000000)">
            <g id="logo3" transform="translate(570.000000, 0.000000)">
                <g id="Group-2">
                    <g id="Capa_1" transform="translate(46.000000, 14.000000)">
                        <g id="XMLID_319_">
                            <path d="M11.1505404,28.4069556 C12.3787325,28.4069556 13.3780231,27.4054889 13.3780231,26.1738 C13.3780231,26.1598222 13.3763822,26.1450222 13.3739209,26.1310444 C13.3731005,26.1244667 13.37228,26.1170667 13.3714596,26.1137778 C13.3731005,26.0348444 13.3616144,25.9608444 13.3501283,25.8958889 C13.2106542,24.7809556 12.2655124,23.9398222 11.14972,23.9398222 C10.2964669,23.9398222 9.51459179,24.4364444 9.14375489,25.2101556 C6.98190706,25.0383111 5.56337388,24.1297556 4.75360393,23.3946889 C1.32418308,20.2825778 2.33249844,15.3262222 3.2390798,12.6482444 C4.22360253,9.74004444 6.56348489,5.78597778 9.34640249,2.32935556 C9.61550537,1.99553333 9.66801325,1.54824444 9.48505611,1.16344444 C9.3029194,0.781933333 8.92715989,0.545133333 8.50463555,0.545133333 L8.4849451,0.545133333 C8.15266867,0.545133333 7.84418488,0.691488889 7.63825555,0.9472 C4.74539958,4.54524444 2.20122875,8.86108889 1.15845508,11.9419556 C-1.35535963,19.3723778 1.40786751,23.3297333 3.2784607,25.0268 C4.40573924,26.0488222 6.36575991,27.2936667 9.31194419,27.4301556 C9.72872548,28.0435333 10.4137892,28.4069556 11.1505404,28.4069556 L11.1505404,28.4069556 Z" id="XMLID_389_" fill="url(#linearGradient-1)"></path>
                            <path d="M5.77012366,11.5588 C5.77012366,11.9230444 5.86365332,12.2790667 6.04743089,12.617 L6.0359448,12.6466 C5.92600642,12.9245111 5.81278631,13.2131111 5.71843621,13.4926667 C4.51075499,17.0652222 4.79216441,19.8920222 6.51097701,21.4534222 C7.37243441,22.2345333 8.50627642,22.6275556 9.85917475,22.6275556 C10.690276,22.6275556 11.6034209,22.4787333 12.5871232,22.1810889 C13.053951,22.0396667 13.3788435,21.6038889 13.3788435,21.1212444 C13.3788435,20.7701556 13.219679,20.4511333 12.9415513,20.2431111 C12.6511171,20.0268667 12.2852029,19.9652 11.9397995,20.0729111 C11.1751535,20.3023111 10.4777832,20.4182444 9.8673791,20.4182444 C9.05514785,20.4182444 8.42177155,20.2176222 7.98612024,19.8213111 C6.97042096,18.8987778 6.9023248,16.8498 7.79906093,14.1989556 C7.83023748,14.1076889 7.86633665,14.0147778 7.90243581,13.9210444 C7.91966496,13.8766444 7.93771454,13.8322444 7.95412326,13.7878444 C7.96807066,13.7894889 7.9828385,13.7911333 7.99760634,13.7911333 C9.22579845,13.7911333 10.225089,12.7896667 10.225089,11.5579778 C10.225089,11.0399778 10.0470545,10.5524 9.70903503,10.1437556 C10.7936509,8.30362222 12.1268588,6.50542222 13.6709186,4.79684444 C13.9268945,4.51317778 14.2722979,4.12015556 14.6628253,3.67615556 C15.01069,3.28066667 15.3930129,2.84571111 15.7786177,2.4124 C16.0764358,2.07775556 16.1478137,1.61648889 15.9648566,1.20784444 C15.7818994,0.7992 15.3913721,0.545133333 14.9442347,0.545133333 C14.6242648,0.545133333 14.3190627,0.682444444 14.1073903,0.921711111 C13.7455782,1.33035556 13.3107474,1.84177778 12.9267835,2.294 C12.5592283,2.72648889 12.2408993,3.1006 12.0431743,3.32013333 C10.2981078,5.24988889 8.8098376,7.28406667 7.61938553,9.36593333 C6.54543531,9.55093333 5.77012366,10.4677111 5.77012366,11.5588 L5.77012366,11.5588 Z" id="XMLID_388_" fill="url(#linearGradient-2)"></path>
                            <path d="M25.4433492,21.4846667 C26.0496511,16.3951111 23.8115028,13.5206222 22.4208644,12.2593333 C21.0449939,11.0112 18.6214271,9.58793333 14.8876246,9.87488889 C14.3510597,9.916 13.7948044,9.99411111 13.2352673,10.1084 C12.8102816,10.1947333 12.4673396,10.5038889 12.3615034,10.8960889 C12.2450015,11.3285778 12.3836551,11.7709333 12.7241359,12.0496667 C12.9776505,12.2568667 13.3189517,12.3415556 13.6364603,12.2741333 C14.1221582,12.1738222 14.5996517,12.1047556 15.054173,12.0694 C15.315892,12.0496667 15.5767905,12.0389778 15.8303051,12.0389778 C18.3695533,12.0389778 20.0137063,13.0462 20.9449007,13.8906222 C22.8360048,15.6074222 23.6088552,18.0732667 23.2421204,21.2223778 C22.4184031,21.5751111 21.8892221,22.3759556 21.8892221,23.2738222 C21.8892221,23.7984 22.0812041,24.3098222 22.4298892,24.7184667 C21.4305986,27.6184444 19.1046637,31.5371556 16.3512817,34.9567778 C16.0821789,35.2906 16.029671,35.7378889 16.2134486,36.1226889 C16.3955853,36.5042 16.7713448,36.741 17.1938691,36.741 L17.2135596,36.741 C17.545836,36.741 17.8543198,36.5946444 18.0602491,36.3389333 C20.9063403,32.7984444 23.4283593,28.5360444 24.4949256,25.4658667 C25.5688758,25.2816889 26.3441875,24.3657333 26.3441875,23.2738222 C26.3450079,22.5716444 26.0086293,21.9056444 25.4433492,21.4846667 L25.4433492,21.4846667 Z" id="XMLID_387_" fill="url(#linearGradient-3)"></path>
                            <path d="M19.1891685,15.8335333 C18.4392904,15.1535556 17.4646129,14.7687556 16.2905695,14.6873556 C15.8623021,14.1438667 15.2289258,13.8330667 14.5496051,13.8330667 C13.321413,13.8330667 12.3221225,14.8345333 12.3221225,16.0662222 C12.3221225,16.0802 12.3237633,16.0941778 12.3262246,16.1081556 C12.3270451,16.1155556 12.3278655,16.1221333 12.3270451,16.1311778 C12.3254042,16.1402222 12.3221225,16.1517333 12.3221225,16.1665333 C12.3221225,16.2578 12.3352494,16.3515333 12.3598625,16.4460889 C12.5436401,17.5199111 13.4649893,18.2993778 14.5496051,18.2993778 C15.44388,18.2993778 16.2405229,17.7706889 16.5933102,16.9476444 C17.0601381,17.0397333 17.4375385,17.2148667 17.7140253,17.4664667 C18.7297246,18.389 18.7978207,20.4388 17.901905,23.0888222 C16.8903079,26.0800667 14.8039402,29.4191111 12.0292269,32.4901111 C11.7724306,32.7746 11.4245659,33.1700889 11.0323977,33.6157333 C10.6861738,34.0095778 10.3054917,34.4420667 9.92152785,34.8737333 C9.62370973,35.2083778 9.55233183,35.6696444 9.73528897,36.0791111 C9.91824611,36.4877556 10.3087735,36.741 10.7559109,36.741 C11.0758808,36.741 11.3810828,36.6036889 11.5927552,36.3644222 C11.9545673,35.9557778 12.3893982,35.4443556 12.773362,34.9921333 C13.1409172,34.5596444 13.4592462,34.1855333 13.6569712,33.966 C16.6294094,30.6787556 18.8757621,27.0667333 19.9825298,23.7951111 C21.1893905,20.2225556 20.9079811,17.3949333 19.1891685,15.8335333 L19.1891685,15.8335333 Z" id="XMLID_385_" fill="url(#linearGradient-4)"></path>
                            <path d="M47.4605593,11.4124444 L39.8239446,11.4124444 C39.2373331,11.4124444 38.7598396,11.8909778 38.7598396,12.4780444 L38.7598396,24.8089111 C38.7598396,25.4757333 39.270971,25.9789333 39.9486508,25.9789333 C40.5812067,25.9789333 41.1161307,25.4436667 41.1161307,24.8089111 L41.1161307,20.1362222 L46.0157722,20.1362222 C46.6122288,20.1362222 47.0790567,19.6502889 47.0790567,19.0286889 C47.0790567,18.4194222 46.6122288,17.9425333 46.0157722,17.9425333 L41.1161307,17.9425333 L41.1161307,13.6061333 L47.4597388,13.6061333 C48.0561955,13.6061333 48.5230234,13.1202 48.5230234,12.4986 C48.5238438,11.8901556 48.057016,11.4124444 47.4605593,11.4124444 L47.4605593,11.4124444 Z" id="XMLID_348_" fill="#FFFFFF"></path>
                            <path d="M62.6016985,24.4446667 L57.4411585,12.2881111 C57.1425199,11.6295111 56.7158934,11.3080222 56.140768,11.3080222 C55.5443114,11.3080222 55.0930718,11.6385556 54.7977149,12.2905778 L49.6142028,24.494 C49.5461066,24.6748889 49.5182118,24.7982222 49.5182118,24.9133333 C49.5182118,25.5110889 49.9948849,25.9789333 50.6020072,25.9789333 C51.1180612,25.9789333 51.4380311,25.7742 51.6103226,25.3351333 L52.8647686,22.2444 L59.2272468,22.2444 L59.2526803,22.3085333 L60.4603615,25.2504444 C60.6564456,25.7413111 61.033846,25.9797556 61.6147144,25.9797556 C62.212812,25.9797556 62.6993303,25.5012222 62.6993303,24.9141556 C62.7009712,24.7949333 62.6697946,24.6502222 62.6016985,24.4446667 L62.6016985,24.4446667 Z M53.7598639,20.0498889 L56.0587245,14.4382222 L58.332972,20.0498889 L53.7598639,20.0498889 L53.7598639,20.0498889 Z" id="XMLID_342_" fill="#FFFFFF"></path>
                            <path d="M77.7436581,12.3736222 C77.7436581,11.7758667 77.2678055,11.3080222 76.6598627,11.3080222 C76.0404338,11.3080222 75.5547359,11.7758667 75.5547359,12.3736222 L75.5547359,21.7666889 L67.8360777,11.9789556 C67.488213,11.5333111 67.0804565,11.3088444 66.6251147,11.3088444 C65.9827136,11.3088444 65.4986566,11.7668222 65.4986566,12.3744444 L65.4986566,24.9133333 C65.4986566,25.5110889 65.9843545,25.9789333 66.6046038,25.9789333 C67.2125466,25.9789333 67.6883993,25.5110889 67.6883993,24.9133333 L67.6883993,15.5005333 L75.4070575,25.2455111 C75.7819966,25.7396667 76.2053414,25.9789333 76.7008845,25.9789333 C77.3047251,25.9789333 77.7436581,25.5308222 77.7436581,24.9133333 L77.7436581,12.3736222 L77.7436581,12.3736222 Z" id="XMLID_340_" fill="#FFFFFF"></path>
                            <path d="M86.2811111,25.9789333 C86.913667,25.9789333 87.448591,25.4436667 87.448591,24.8089111 L87.448591,13.6061333 L91.111836,13.6061333 C91.7082927,13.6061333 92.1751205,13.1202 92.1751205,12.4986 C92.1751205,11.8893333 91.7082927,11.4124444 91.111836,11.4124444 L81.4306958,11.4124444 C80.8342391,11.4124444 80.3674112,11.8901556 80.3674112,12.4986 C80.3674112,13.1193778 80.8342391,13.6061333 81.4306958,13.6061333 L85.0931203,13.6061333 L85.0931203,24.8089111 C85.0931203,25.4757333 85.6042517,25.9789333 86.2811111,25.9789333 L86.2811111,25.9789333 Z" id="XMLID_335_" fill="#FFFFFF"></path>
                            <path d="M100.276102,12.2881111 C99.9774632,11.6295111 99.5508367,11.3080222 98.9757113,11.3080222 C98.3792546,11.3080222 97.9280151,11.6385556 97.6326582,12.2905778 L92.4499665,24.494 C92.3818703,24.6748889 92.3539755,24.7982222 92.3539755,24.9133333 C92.3539755,25.5110889 92.8298282,25.9789333 93.437771,25.9789333 C93.953825,25.9789333 94.2737948,25.7742 94.4460863,25.3351333 L95.7005324,22.2444 L102.063011,22.2444 L102.088444,22.3085333 L103.296125,25.2504444 C103.492209,25.7413111 103.86961,25.9797556 104.450478,25.9797556 C105.048576,25.9797556 105.535094,25.5012222 105.535094,24.9141556 C105.535094,24.7957556 105.504738,24.6510444 105.436642,24.4454889 L100.276102,12.2881111 L100.276102,12.2881111 Z M96.5948072,20.0498889 L96.6530581,19.9084667 L98.8928473,14.4390444 L101.167095,20.0507111 L96.5948072,20.0507111 L96.5948072,20.0498889 Z" id="XMLID_326_" fill="#FFFFFF"></path>
                            <path d="M119.174836,11.3080222 C118.555407,11.3080222 118.069709,11.7758667 118.069709,12.3736222 L118.069709,21.7666889 L110.351051,11.9789556 C110.003186,11.5333111 109.59543,11.3088444 109.140088,11.3088444 C108.497687,11.3088444 108.01363,11.7668222 108.01363,12.3744444 L108.01363,24.9133333 C108.01363,25.5110889 108.499328,25.9789333 109.119577,25.9789333 C109.72752,25.9789333 110.203373,25.5110889 110.203373,24.9133333 L110.203373,15.5005333 L117.922031,25.2455111 C118.29697,25.7396667 118.720315,25.9789333 119.215858,25.9789333 C119.819698,25.9789333 120.258632,25.5308222 120.258632,24.9133333 L120.258632,12.3736222 C120.258632,11.7758667 119.782779,11.3080222 119.174836,11.3080222 L119.174836,11.3080222 Z" id="XMLID_324_" fill="#FFFFFF"></path>
                            <path d="M133.565277,23.9768222 L128.783778,18.1086222 L133.192799,13.1193778 C133.431546,12.8603778 133.542305,12.5906889 133.542305,12.2692 C133.542305,11.7207778 133.094347,11.3080222 132.499531,11.3080222 C132.131155,11.3080222 131.765241,11.5267333 131.413274,11.9592222 L126.160845,18.3100667 L126.168229,18.3191111 L131.642996,25.2463333 C132.013013,25.7330889 132.398617,25.9797556 132.791606,25.9797556 C133.479131,25.9797556 133.959086,25.5505556 133.959086,24.9347111 C133.958265,24.6156889 133.829457,24.3024222 133.565277,23.9768222 L133.565277,23.9768222 Z" id="XMLID_322_" fill="#FFFFFF"></path>
                            <path d="M125.985272,12.4780444 C125.985272,11.8219111 125.4725,11.3080222 124.817792,11.3080222 C124.140112,11.3080222 123.628981,11.8112222 123.628981,12.4780444 L123.628981,24.8089111 C123.628981,25.4757333 124.140112,25.9789333 124.817792,25.9789333 C125.450348,25.9789333 125.985272,25.4436667 125.985272,24.8089111 L125.985272,12.4780444 L125.985272,12.4780444 Z" id="XMLID_320_" fill="#FFFFFF"></path>
                        </g>
                    </g>
                </g>
            </g>
        </g>
    </g>
</svg>
